<svg width="364" height="155" viewBox="0 0 364 155" fill="none" xmlns="http://www.w3.org/2000/svg">
<path d="M81.8032 1.93609C80.6779 2.5022 79.6015 3.41291 78.4028 3.59751C65.1438 5.62813 52.1172 8.3233 40.0079 14.5628C13.5754 28.1987 -9.73798 69.0449 8.19353 106.211C19.8013 130.283 45.5366 140.879 70.5502 131.822C80.7391 128.13 88.3472 121.053 92.934 111.676C100.163 96.9197 106.487 81.6962 112.541 66.4112C117.996 52.603 123.586 38.9795 131.353 26.2419C142.509 7.94179 158.642 -0.205306 179.656 0.00390711C206.773 0.262347 228.509 14.6736 239.04 39.804C239.383 40.6162 239.835 41.3916 240.643 42.9791C241.621 41.4162 242.257 40.3701 242.918 39.324C247.333 32.2969 251.284 24.9005 256.262 18.3041C266.574 4.63126 281.166 0.114666 297.63 0.0162106C332.233 -0.205314 359.154 24.2236 363.105 58.9164C365.662 81.4378 362.787 103.012 353.87 123.748C350.189 132.326 344.954 139.92 337.48 145.691C323.597 156.398 308.65 157.247 292.774 150.663C284.187 147.107 275.478 143.784 266.647 140.904C263.247 139.796 259.357 140.203 255.688 139.92C255.59 139.526 255.504 139.132 255.406 138.726C256.678 138.418 257.987 137.717 259.21 137.852C269.521 139.046 279.857 140.116 290.107 141.729C321.469 146.651 352.207 125.742 359.583 94.3968C363.387 78.238 363.974 62.3131 356.83 46.8558C348.513 28.8879 331.083 19.3132 311.329 20.3962C294.364 21.3315 281.606 28.2233 273.643 43.4837C271.613 47.3726 269.521 51.2493 267.919 55.3105C260.58 73.8568 253.755 92.6123 246.012 110.974C242.759 118.703 238.196 126.013 233.389 132.917C223.237 147.525 208.657 154.085 191.252 154.786C162.862 155.931 142.558 142.984 128.883 118.506C128.222 117.324 127.598 116.118 126.938 114.937C126.877 114.814 126.693 114.765 126.033 114.297C124.736 116.574 123.415 118.801 122.18 121.078C113.923 136.154 103.319 148.62 85.8152 152.842C53.9397 160.521 25.1832 147.414 9.80812 118.21C0.450955 100.439 -1.60393 81.4132 1.09925 61.7347C4.255 38.7087 13.6978 15.8304 21.3303 0.348525C41.0598 5.62813 60.9973 4.56974 80.9348 0.373133L81.8032 1.93609ZM195.74 20.3593C176.084 19.7317 161.247 27.7434 153.358 46.0312C144.747 66.0051 137.078 86.3974 129.188 106.691C128.662 108.045 129.274 110.285 130.106 111.651C146.3 138.098 176.011 138.837 194.224 129.803C205.379 124.265 211.984 114.309 216.705 103.418C224.228 86.0897 230.87 68.3803 237.621 50.7324C238.294 48.9725 237.695 46.1912 236.729 44.4067C227.897 28.1249 213.855 20.5808 195.74 20.3593Z" fill="#D9D9D9" fill-opacity="0.05"/>
</svg>
