<?xml version="1.0" encoding="UTF-8"?><svg id="Layer_1" xmlns="http://www.w3.org/2000/svg" viewBox="0 0 65 65"><defs><style>.cls-1{fill:none;stroke:#101e2b;stroke-miterlimit:10;stroke-width:.5px;}.cls-2{fill:#101e2b;}</style></defs><path class="cls-1" d="M32.89,21.5c.2.08.43.11.63.21.83.38,1.58,1.65,2.33,2.22.16.12.38.18.58.19,1.32.1,2.64-.48,3.79.51,1.3,1.13.62,2.65.75,4.1.02.25.11.37.26.56.75.91,1.98,1.51,2.28,2.72v.99c-.25,1.06-1.2,1.63-1.94,2.34-.35.34-.65.54-.69,1.07-.09,1.18.39,2.38-.29,3.49-1.01,1.65-2.8.91-4.33,1.04-.23.02-.36.1-.54.24-.85.68-1.64,2.13-2.78,2.29-1.76.24-2.26-.85-3.3-1.92-.34-.35-.54-.65-1.07-.69-1.33-.1-2.63.48-3.79-.51-1.3-1.11-.62-2.66-.75-4.1-.02-.25-.11-.37-.26-.56-.75-.91-1.98-1.51-2.28-2.72v-.99c.25-1.06,1.2-1.63,1.94-2.34.35-.34.65-.54.69-1.07.09-1.19-.4-2.41.31-3.51,1.04-1.63,2.77-.88,4.32-1.02.25-.02.37-.11.56-.26.76-.63,1.3-1.59,2.2-2.06l.66-.22h.73Z"/><path class="cls-1" d="M29.71,28.48c1.25-.14,2.06,1.28,1.28,2.27s-2.39.52-2.51-.73c-.07-.74.48-1.46,1.23-1.54Z"/><path class="cls-2" d="M28.77,36.47c2.25-2.25,4.5-4.5,6.75-6.75l.96-.96c.25-.25-.14-.63-.38-.38-2.25,2.25-4.5,4.5-6.75,6.75l-.96.96c-.25.25.14.63.38.38h0Z"/><path class="cls-1" d="M34.93,33.71c1.25-.14,2.06,1.28,1.28,2.27s-2.39.52-2.51-.73c-.07-.74.48-1.46,1.23-1.54Z"/></svg>