<?xml version="1.0" encoding="UTF-8"?><svg id="Layer_1" xmlns="http://www.w3.org/2000/svg" viewBox="0 0 65 65"><defs><style>.cls-1{fill:none;stroke:#101e2b;stroke-miterlimit:10;stroke-width:.5px;}</style></defs><path class="cls-1" d="M29.39,22c.33.07.65.13.96.25.98.36,1.82,1.18,2.19,2.15.31.79.29,1.61.29,2.44,0,.18-.33,5.49-.33,5.66l.5-5.69.44-1.47c.35-.83,1.11-1.6,1.94-1.96,2.72-1.19,5.62.96,5.35,3.88.96.48,1.74,1.27,2.08,2.3.92,2.81-1.53,5.52-4.4,4.93l-3.7-.96-2.2-1.02c.08.09,1.97,1.1,2.05,1.19,1.87,1.99,4.27,3.19,7.03,3.44.4.04,1.05-.1,1.31.29.28.43-.04.96-.53.97-.06,0-.13-.04-.2-.03-3.24.03-6.24-1.5-8.47-3.76-.1-.1-1.1-2-1.19-2.1.04.16.98,2.12,1.02,2.28.26,1.01.58,2.02.82,3.03.07.3.17.63.21.94.31,2.91-2.6,5.1-5.32,3.92-.89-.39-1.55-1.1-1.98-1.95-1.82.21-3.64-1.03-4.08-2.81-.5-1.98.57-3.94,2.49-4.6l1.06-.3,5.78-.51c-.21,0-5.55.33-5.77.33-.79,0-1.58,0-2.33-.29-.96-.38-1.79-1.22-2.15-2.19-.12-.32-.17-.64-.24-.96.02-.25-.02-.53,0-.78.01-.16.09-.46.13-.62.39-1.42,1.64-2.53,3.1-2.74.21-1.42,1.27-2.66,2.65-3.07.2-.06.52-.15.72-.16h.78Z"/><path class="cls-1" d="M28.48,28.48c.8,0,4.02,4.02,4.02,4.02,0,0,3.22-3.22,4.82-3.22"/><path class="cls-1" d="M32.5,32.5s-2.41,3.22-2.41,4.82"/></svg>