<?xml version="1.0" encoding="UTF-8"?><svg id="Layer_1" xmlns="http://www.w3.org/2000/svg" viewBox="0 0 65 65"><defs><style>.cls-1{fill:none;stroke:#101e2b;stroke-miterlimit:10;stroke-width:.5px;}.cls-2{fill:#101e2b;}</style></defs><rect class="cls-1" x="22" y="22" width="21" height="21" rx="2.94" ry="2.94"/><path class="cls-2" d="M34.19,28.64h4.99c.48,0,.48-.75,0-.75h-4.99c-.48,0-.48.75,0,.75h0Z"/><path class="cls-2" d="M25.56,28.55l1.24,1.24c.14.14.39.14.53,0l1.99-1.99.28-.28c.34-.34-.19-.87-.53-.53l-1.99,1.99-.28.28h.53l-1.24-1.24c-.34-.34-.87.19-.53.53h0Z"/><path class="cls-2" d="M34.19,36.86h4.99c.48,0,.48-.75,0-.75h-4.99c-.48,0-.48.75,0,.75h0Z"/><path class="cls-2" d="M25.56,36.78l1.24,1.24c.14.14.39.14.53,0l1.99-1.99.28-.28c.34-.34-.19-.87-.53-.53l-1.99,1.99-.28.28h.53l-1.24-1.24c-.34-.34-.87.19-.53.53h0Z"/></svg>